<svg width="79" height="79" viewBox="0 0 79 79" fill="none" xmlns="http://www.w3.org/2000/svg">
<g clip-path="url(#clip0_30649_234)">
<path d="M48.8938 18.7472C42.5121 18.7472 37.332 23.9272 37.332 30.3089C37.332 36.6906 42.5121 41.8707 48.8938 41.8707C55.2755 41.8707 60.4555 36.6906 60.4555 30.3089C60.4718 23.9272 55.2917 18.7472 48.8938 18.7472ZM52.2227 34.8882C51.7193 35.5052 51.0535 35.9112 50.2903 36.1223C49.9493 36.2197 49.8031 36.3821 49.8194 36.7393C49.8356 37.0804 49.8194 37.4214 49.8194 37.7624C49.8194 38.0709 49.657 38.2333 49.3647 38.2333C48.9912 38.2495 48.634 38.2495 48.2605 38.2333C47.9357 38.2333 47.7896 38.0384 47.7896 37.7299C47.7896 37.4863 47.7896 37.2265 47.7896 36.9829C47.7896 36.4308 47.7733 36.4146 47.2375 36.3334C46.5554 36.2197 45.8897 36.0736 45.2726 35.765C44.7855 35.5215 44.7367 35.4078 44.8829 34.8882C44.9803 34.5147 45.094 34.125 45.2077 33.7515C45.3376 33.313 45.4675 33.2643 45.8572 33.4754C46.5392 33.8327 47.2699 34.0275 48.0331 34.125C48.5203 34.1899 49.0074 34.1412 49.4621 33.9301C50.3065 33.5566 50.4527 32.5661 49.7219 31.9815C49.4784 31.7866 49.2023 31.6242 48.91 31.5106C48.1631 31.1858 47.3836 30.926 46.6854 30.5038C45.5487 29.8218 44.8179 28.88 44.8991 27.4835C44.9966 25.9083 45.8897 24.934 47.3187 24.4144C47.9195 24.2033 47.9195 24.2033 47.9195 23.5862C47.9195 23.3751 47.9195 23.164 47.9195 22.9529C47.9357 22.482 48.0169 22.4008 48.4716 22.3846C48.6177 22.3846 48.7639 22.3846 48.91 22.3846C49.9006 22.3846 49.9006 22.3846 49.9006 23.3751C49.9006 24.0734 49.9006 24.0734 50.5988 24.1871C51.1347 24.2682 51.6543 24.4306 52.1415 24.6417C52.4175 24.7554 52.5149 24.9503 52.4337 25.2426C52.3038 25.6648 52.1902 26.1032 52.0603 26.5254C51.9304 26.9313 51.8005 26.9801 51.4107 26.8014C50.6313 26.428 49.8194 26.2656 48.9587 26.3143C48.7314 26.3305 48.5203 26.363 48.3092 26.4442C47.5622 26.769 47.4486 27.5809 48.0819 28.0843C48.4066 28.3441 48.7639 28.5227 49.1374 28.6851C49.7869 28.9611 50.4527 29.221 51.0697 29.562C53.0833 30.6987 53.6192 33.1831 52.2227 34.8882Z" fill="white"/>
<path d="M32.071 34.1087C33.8378 34.1087 35.27 32.6765 35.27 30.9098C35.27 29.143 33.8378 27.7108 32.071 27.7108C30.3043 27.7108 28.8721 29.143 28.8721 30.9098C28.8721 32.6765 30.3043 34.1087 32.071 34.1087Z" fill="white"/>
<path d="M65.7331 34.1087C67.4999 34.1087 68.9321 32.6765 68.9321 30.9098C68.9321 29.143 67.4999 27.7108 65.7331 27.7108C63.9664 27.7108 62.5342 29.143 62.5342 30.9098C62.5342 32.6765 63.9664 34.1087 65.7331 34.1087Z" fill="white"/>
<path d="M73.7385 11.4562H23.3507C20.444 11.4562 18.0732 13.827 18.0732 16.7337V43.9005C18.0732 46.8072 20.444 49.178 23.3507 49.178H73.7223C76.6289 49.178 78.9997 46.8072 78.9997 43.9005V16.7337C79.016 13.827 76.6452 11.4562 73.7385 11.4562ZM74.5017 38.2008C74.0795 38.0872 73.6411 38.0384 73.1864 38.0384C70.231 38.0384 67.844 40.4255 67.844 43.3809C67.844 43.8356 67.9089 44.274 68.0063 44.68H28.7744C28.8393 44.3552 28.8718 44.0304 28.8718 43.6894C28.8718 40.734 26.4847 38.347 23.5293 38.347C23.2046 38.347 22.896 38.3795 22.5875 38.4282V22.206C22.896 22.2547 23.2046 22.2872 23.5293 22.2872C26.4847 22.2872 28.8718 19.9001 28.8718 16.9448C28.8718 16.6038 28.8393 16.279 28.7744 15.9542H67.8764C67.844 16.1653 67.8277 16.3927 67.8277 16.62C67.8277 19.5754 70.2148 21.9624 73.1701 21.9624C73.6248 21.9624 74.0633 21.8975 74.4855 21.8V38.2008H74.5017Z" fill="white"/>
<path d="M63.8981 53.8384H15.9786C14.647 53.8384 13.5591 52.7667 13.5591 51.4189V26.7852V25.1126V20.6796C11.0096 21.0368 9.06104 23.229 9.06104 25.8759V53.1077C9.06104 56.0143 11.4156 58.3527 14.306 58.3527H64.7425C67.3894 58.3527 69.5653 56.3878 69.9388 53.8384H65.4895H63.8981Z" fill="white"/>
<path d="M54.8371 63.0294H6.91756C5.58601 63.0294 4.49804 61.9576 4.49804 60.6098V35.9762V34.3036V29.8705C1.94861 30.2278 0 32.42 0 35.0668V62.2986C0 65.2053 2.35457 67.5436 5.245 67.5436H55.6815C58.3284 67.5436 60.5043 65.5788 60.8778 63.0294H56.4285H54.8371Z" fill="white"/>
</g>
<defs>
<clipPath id="clip0_30649_234">
<rect width="79" height="79" fill="white"/>
</clipPath>
</defs>
</svg>
