<svg width="56" height="75" viewBox="0 0 56 75" fill="none" xmlns="http://www.w3.org/2000/svg">
<path d="M47.4413 41.72C44.996 46.676 41.6827 51.6133 38.2947 56.0467C35.0807 60.2262 31.6442 64.2298 28 68.04C24.3557 64.2298 20.9192 60.2263 17.7053 56.0467C14.3173 51.6133 11.004 46.676 8.55867 41.72C6.08533 36.7127 4.66667 32.0227 4.66667 28C4.66667 21.8116 7.12499 15.8767 11.5008 11.5008C15.8767 7.12499 21.8116 4.66667 28 4.66667C34.1884 4.66667 40.1233 7.12499 44.4992 11.5008C48.875 15.8767 51.3333 21.8116 51.3333 28C51.3333 32.0227 49.91 36.7127 47.4413 41.72ZM28 74.6667C28 74.6667 56 48.132 56 28C56 20.5739 53.05 13.452 47.799 8.20101C42.548 2.94999 35.4261 0 28 0C20.5739 0 13.452 2.94999 8.20101 8.20101C2.94999 13.452 1.10657e-07 20.5739 0 28C0 48.132 28 74.6667 28 74.6667Z" fill="white"/>
<path d="M28 37.3333C25.5246 37.3333 23.1507 36.35 21.4003 34.5997C19.65 32.8493 18.6667 30.4754 18.6667 28C18.6667 25.5246 19.65 23.1507 21.4003 21.4003C23.1507 19.65 25.5246 18.6667 28 18.6667C30.4754 18.6667 32.8493 19.65 34.5997 21.4003C36.35 23.1507 37.3333 25.5246 37.3333 28C37.3333 30.4754 36.35 32.8493 34.5997 34.5997C32.8493 36.35 30.4754 37.3333 28 37.3333ZM28 42C31.713 42 35.274 40.525 37.8995 37.8995C40.525 35.274 42 31.713 42 28C42 24.287 40.525 20.726 37.8995 18.1005C35.274 15.475 31.713 14 28 14C24.287 14 20.726 15.475 18.1005 18.1005C15.475 20.726 14 24.287 14 28C14 31.713 15.475 35.274 18.1005 37.8995C20.726 40.525 24.287 42 28 42Z" fill="white"/>
</svg>
