<svg width="75" height="75" viewBox="0 0 75 75" fill="none" xmlns="http://www.w3.org/2000/svg">
<g clip-path="url(#clip0_30649_280)">
<path d="M32.7957 18.9129C31.903 17.901 30.3905 17.7209 29.2859 18.5023L9.21813 32.6208C8.02084 33.4604 7.73211 35.1133 8.57445 36.3106C9.41679 37.5106 11.067 37.7993 12.2643 36.9517L30.3932 24.2L45.6215 41.4494C46.1274 42.0216 46.8532 42.3447 47.6081 42.3447C47.7062 42.3447 47.8042 42.3395 47.9022 42.3289C48.7604 42.2335 49.5153 41.7223 49.9312 40.9647L64.4947 14.3489C64.9344 15.2468 65.8297 15.8455 66.8522 15.8455C66.9899 15.8455 67.1276 15.8349 67.2627 15.8137C68.7117 15.5859 69.6997 14.2323 69.4719 12.7861L68.4203 6.08177L68.415 6.03674C68.4097 6.0023 68.3885 5.97846 68.3779 5.94668C68.3223 5.66855 68.2269 5.40366 68.0865 5.15202C68.0309 5.05931 67.9673 4.98249 67.9038 4.89508C67.8322 4.79177 67.7766 4.67787 67.6866 4.58516C67.623 4.52159 67.5356 4.4845 67.4693 4.42623C67.3819 4.35736 67.3025 4.29643 67.2071 4.23816C67.0243 4.11896 66.8257 4.03155 66.6191 3.96268C66.5237 3.93089 66.4363 3.89381 66.3356 3.87262C66.0575 3.81434 65.7688 3.79845 65.4827 3.83288C65.4509 3.83553 65.4244 3.82229 65.39 3.82759C65.3847 3.82759 65.3847 3.83288 65.3794 3.83288C65.0986 3.87791 64.8205 3.96797 64.5582 4.10572L58.103 7.52805C56.8103 8.21411 56.3176 9.81667 57.001 11.112C57.4964 12.0417 58.4738 12.5927 59.4592 12.5159L47.0969 35.1107L32.7957 18.9129Z" fill="white"/>
<path d="M66.8547 30.7745H62.847C61.3822 30.7745 60.1981 31.9586 60.1981 33.4234V65.8879H54.9534V58.6327C54.9534 57.1678 53.7667 55.9838 52.3045 55.9838H46.6545C45.1897 55.9838 44.0056 57.1678 44.0056 58.6327V65.8879H37.1186V39.786C37.1186 38.3212 35.9319 37.1371 34.4697 37.1371H30.8143C29.3521 37.1371 28.1654 38.3212 28.1654 39.786V65.8879H20.0837V58.6327C20.0837 57.1678 18.897 55.9838 17.4348 55.9838H13.1119C11.6497 55.9838 10.463 57.1678 10.463 58.6327V65.8879H5.29773V10.8471C5.29773 9.38228 4.11104 8.19824 2.64887 8.19824C1.18669 8.19824 0 9.38228 0 10.8471V68.5368C0 70.0016 1.18669 71.1856 2.64887 71.1856H72.3511C73.816 71.1856 75 70.0016 75 68.5368C75 67.0719 73.816 65.8879 72.3511 65.8879H69.5063V33.4234C69.5036 31.9612 68.3169 30.7745 66.8547 30.7745ZM49.3007 61.2815H49.653V65.8879H49.3007V61.2815Z" fill="white"/>
</g>
<defs>
<clipPath id="clip0_30649_280">
<rect width="75" height="75" fill="white"/>
</clipPath>
</defs>
</svg>
