<svg width="78" height="77" viewBox="0 0 78 77" fill="none" xmlns="http://www.w3.org/2000/svg">
<g clip-path="url(#clip0_30690_207)">
<path d="M75.8011 29.4071H70.2911C69.6351 27.1822 68.7506 25.0474 67.6504 23.0346L71.5503 19.1213C72.1994 18.4701 72.1982 17.4162 71.5473 16.7664L60.9348 6.17008C60.2839 5.52018 59.2298 5.52051 58.5794 6.17125L54.6825 10.0692C52.668 8.96811 50.534 8.0833 48.3121 7.4279V1.91831C48.3121 0.998183 47.566 0.252319 46.6461 0.252319H31.6522C30.7321 0.252319 29.9862 0.998183 29.9862 1.91831V7.42824C27.7636 8.0838 25.6296 8.96861 23.6158 10.0695L19.7189 6.17141C19.0686 5.52101 18.0142 5.52051 17.3635 6.17025L6.75114 16.7664C6.1004 17.416 6.09924 18.4704 6.7483 19.1216L10.6496 23.0347C9.54833 25.0492 8.66319 27.1837 8.00746 29.4071H2.49753C1.57741 29.4071 0.831543 30.153 0.831543 31.0731V46.067C0.831543 46.987 1.57741 47.733 2.49753 47.733H8.00729C8.66269 49.9549 9.54733 52.0891 10.6486 54.1034L6.75064 58.0003C6.4381 58.3127 6.26234 58.7365 6.26234 59.1784C6.26234 59.6202 6.43793 60.044 6.7503 60.3566L17.3628 70.9691C18.0136 71.6195 19.0681 71.6195 19.719 70.9691L23.6159 67.072C25.6283 68.1717 27.7624 69.056 29.9865 69.7118V75.2218C29.9865 76.1418 30.7324 76.8878 31.6525 76.8878H46.6464C47.5664 76.8878 48.3124 76.1418 48.3124 75.2218V69.7121C50.5368 69.0564 52.6715 68.1719 54.685 67.0712L58.5982 70.9711C59.2493 71.62 60.3035 71.6188 60.9531 70.9681L71.5493 60.3556C72.199 59.7048 72.1989 58.6507 71.5485 58.0003L67.6516 54.1034C68.7514 52.0906 69.6357 49.9564 70.2913 47.7329H75.8011C76.721 47.7329 77.4671 46.9868 77.4671 46.0669V31.073C77.4671 30.153 76.721 29.4071 75.8011 29.4071ZM74.1351 44.401H69.02C68.257 44.401 67.5914 44.9195 67.4046 45.6595C66.7006 48.4497 65.6037 51.0953 64.1448 53.5223C63.7506 54.1779 63.8536 55.0179 64.3945 55.5588L68.0152 59.1795L59.7713 67.4362L56.1361 63.8133C55.595 63.2742 54.7565 63.1719 54.1017 63.5656C51.6747 65.0247 49.0291 66.1215 46.2389 66.8254C45.4991 67.0122 44.9804 67.6777 44.9804 68.4408V73.5559H33.3185V68.4408C33.3185 67.6777 32.8002 67.0123 32.0604 66.8256C29.2687 66.1209 26.6232 65.024 24.1972 63.5656C23.5415 63.1716 22.7017 63.2744 22.1607 63.8153L18.5408 67.4352L10.2845 59.1789L13.9056 55.5592C14.4465 55.0182 14.5496 54.1784 14.1555 53.5225C12.6946 51.0923 11.5973 48.4467 10.894 45.6597C10.7072 44.9198 10.0416 44.4012 9.27861 44.4012H4.16352V32.7393H9.27861C10.0416 32.7393 10.707 32.221 10.8938 31.4811C11.598 28.6926 12.6952 26.0472 14.1555 23.618C14.5491 22.9631 14.4468 22.1244 13.9076 21.5833L10.2834 17.9483L18.5397 9.70464L22.1604 13.3267C22.7017 13.868 23.5415 13.9706 24.197 13.5766C26.6262 12.1163 29.2716 11.0189 32.0602 10.3149C32.8 10.1281 33.3183 9.46274 33.3183 8.69972V3.5843H44.9803V8.69939C44.9803 9.46241 45.4987 10.128 46.2388 10.3147C49.0258 11.0181 51.6714 12.1155 54.1016 13.5762C54.757 13.9701 55.5973 13.8671 56.1382 13.3263L59.7589 9.70431L68.0154 17.9481L64.3925 21.5833C63.8533 22.1243 63.751 22.9629 64.1448 23.6177C65.6032 26.0438 66.7001 28.6891 67.4048 31.4808C67.5916 32.2207 68.257 32.7389 69.02 32.7389H74.1351V44.401Z" fill="white"/>
<path d="M39.1491 15.2462C26.7476 15.2462 16.6582 25.3356 16.6582 37.7371C16.6582 50.1385 26.7476 60.2279 39.1491 60.2279C51.5505 60.2279 61.6399 50.1387 61.6399 37.7371C61.6399 25.3354 51.5507 15.2462 39.1491 15.2462ZM39.1491 56.896C28.5849 56.896 19.9902 48.3013 19.9902 37.7371C19.9902 27.1729 28.5849 18.5782 39.1491 18.5782C49.7133 18.5782 58.3079 27.1729 58.3079 37.7371C58.3079 48.3013 49.7133 56.896 39.1491 56.896Z" fill="white"/>
<path d="M41.6483 29.4072H40.8153V26.9082H37.4833V29.4072H36.6503C34.8131 29.4072 33.3184 30.9019 33.3184 32.7392V36.0711C33.3184 37.9084 34.8131 39.4031 36.6503 39.4031H39.1493H41.6483V42.7351H36.6503V41.0691H33.3184V42.7351C33.3184 44.5724 34.8131 46.0671 36.6503 46.0671H37.4833V48.5661H40.8153V46.0671H41.6483C43.4856 46.0671 44.9803 44.5724 44.9803 42.7351V39.4031C44.9803 37.5659 43.4856 36.0711 41.6483 36.0711H39.1493H36.6503V32.7392H41.6483V34.4052H44.9803V32.7392C44.9803 30.9019 43.4856 29.4072 41.6483 29.4072Z" fill="white"/>
<path d="M53.31 36.071H49.978V39.403H53.31V36.071Z" fill="white"/>
<path d="M28.3203 36.071H24.9883V39.403H28.3203V36.071Z" fill="white"/>
</g>
<defs>
<clipPath id="clip0_30690_207">
<rect width="76.6355" height="76.6355" fill="white" transform="translate(0.831543 0.252319)"/>
</clipPath>
</defs>
</svg>
