<svg width="41" height="95" viewBox="0 0 41 95" fill="none" xmlns="http://www.w3.org/2000/svg">
<path d="M30.8014 79.7575L24.8827 76.0633C24.6047 75.8912 24.2339 76.0898 24.2339 76.4208V78.2481H10.5694C10.2516 78.2481 10 78.4996 10 78.8174V81.4391C10 81.7569 10.2516 82.0085 10.5694 82.0085H24.2339V83.8092C24.2339 84.1402 24.6047 84.3521 24.8827 84.1667L30.8014 80.4725C31.0662 80.3136 31.0662 79.9296 30.8014 79.7575Z" fill="white"/>
<path d="M30.4306 88.0065H16.7661V86.1926C16.7661 85.8615 16.3953 85.6497 16.1173 85.835L10.1986 89.5292C9.9338 89.7014 9.9338 90.0854 10.1986 90.2575L16.1173 93.9517C16.3953 94.1238 16.7661 93.9252 16.7661 93.5942V91.7537H30.4306C30.7484 91.7537 31 91.5021 31 91.1844V88.5627C31 88.2581 30.7484 88.0065 30.4306 88.0065Z" fill="white"/>
<path d="M33.4287 0H7.57122C3.40344 0 0 3.4322 0 7.63519V63.3648C0 67.5678 3.40344 71 7.57122 71H33.4287C37.5965 71 41 67.5678 41 63.3648V47.8181V14.1651V7.63519C41.0144 3.4322 37.5965 0 33.4287 0ZM23.7664 67.7859H16.4692C15.3876 67.7859 14.5079 66.8988 14.5079 65.8081C14.5079 64.7173 15.3876 63.8302 16.4692 63.8302H23.7664C24.848 63.8302 25.7277 64.7173 25.7277 65.8081C25.7133 66.9134 24.848 67.7859 23.7664 67.7859ZM36.9908 12.6962V14.1651V47.7745V51.6721V58.6528C36.9908 59.729 36.1111 60.6161 35.0439 60.6161H5.97045C4.90327 60.6161 4.02356 59.729 4.02356 58.6528V12.3472C4.02356 11.271 4.90327 10.3839 5.97045 10.3839H35.0439C36.1111 10.3839 36.9908 11.271 36.9908 12.3472V12.6962Z" fill="white"/>
</svg>
