<svg aria-hidden="true" style="position: absolute; width: 0; height: 0; overflow: hidden;" version="1.1" xmlns="http://www.w3.org/2000/svg" xmlns:xlink="http://www.w3.org/1999/xlink">
<defs>
<symbol id="icon-youtube" viewBox="0 0 32 32">
<path fill="#e35336" style="fill: var(--color1, #e35336)" d="M27.2 3.5h-22.4c-2.647 0-4.8 2.153-4.8 4.8v14.933c0 2.647 2.153 4.8 4.8 4.8h22.4c2.647 0 4.8-2.153 4.8-4.8v-14.933c0-2.647-2.153-4.8-4.8-4.8z"></path>
<path fill="#d93c1c" style="fill: var(--color2, #d93c1c)" d="M28.8 26.433h-24c-1.767 0-3.2-1.433-3.2-3.2v-16.533c0-0.914 0.256-1.768 0.699-2.495-1.378 0.845-2.299 2.364-2.299 4.095v14.933c0 2.647 2.153 4.8 4.8 4.8h22.4c1.731 0 3.25-0.921 4.095-2.299-0.727 0.443-1.581 0.699-2.495 0.699z"></path>
<path fill="#fff" style="fill: var(--color3, #fff)" d="M22.691 15.32l-10.667-6.933c-0.349-0.227-0.824 0.033-0.824 0.447v13.867c0 0.414 0.475 0.674 0.824 0.447l10.667-6.933c0.318-0.207 0.318-0.688 0-0.894z"></path>
<path fill="#e5e5e5" style="fill: var(--color4, #e5e5e5)" d="M12.8 8.891l-0.776-0.504c-0.349-0.227-0.824 0.033-0.824 0.447v13.867c0 0.414 0.475 0.674 0.824 0.447l0.776-0.504v-13.752z"></path>
</symbol>
<symbol id="icon-facebook" viewBox="0 0 32 32">
<path fill="#1c74bb" style="fill: var(--color5, #1c74bb)" d="M29.333 0h-26.667c-1.47 0-2.667 1.196-2.667 2.667v26.667c0 1.47 1.196 2.667 2.667 2.667h26.667c1.47 0 2.667-1.196 2.667-2.667v-26.667c0-1.47-1.196-2.667-2.667-2.667z"></path>
<path fill="#035fa1" style="fill: var(--color6, #035fa1)" d="M31.467 29.867h-27.733c-0.884 0-1.6-0.716-1.6-1.6v-27.733c0-0.167 0.016-0.33 0.045-0.488-1.238 0.23-2.179 1.317-2.179 2.621v26.667c0 1.47 1.196 2.667 2.667 2.667h26.667c1.304 0 2.391-0.941 2.621-2.179-0.158 0.029-0.321 0.045-0.488 0.045z"></path>
<path fill="#035fa1" style="fill: var(--color6, #035fa1)" d="M13.333 32v-10.667h-0.533c-1.176 0-2.133-0.957-2.133-2.133v-4.267c0-1.176 0.957-2.133 2.133-2.133h0.533v-1.067c0-4.705 3.828-8.533 8.533-8.533h4.267c1.176 0 2.133 0.957 2.133 2.133v4.267c0 1.176-0.957 2.133-2.133 2.133h-4.267v1.067h4.267c1.176 0 2.133 0.957 2.133 2.133v4.267c0 1.176-0.957 2.133-2.133 2.133h-4.267v10.667h-8.533z"></path>
<path fill="#fff" style="fill: var(--color3, #fff)" d="M21.866 10.133h4.267c0.295 0 0.533-0.239 0.533-0.533v-4.267c0-0.295-0.239-0.533-0.533-0.533h-4.267c-3.829 0-6.933 3.104-6.933 6.933v2.667h-2.133c-0.295 0-0.533 0.239-0.533 0.533v4.267c0 0.295 0.239 0.533 0.533 0.533h2.133v12.267h5.333v-12.267h5.867c0.295 0 0.533-0.239 0.533-0.533v-4.267c0-0.295-0.239-0.533-0.533-0.533h-5.867v-2.667c0-0.884 0.716-1.6 1.6-1.6z"></path>
<path fill="#e5e5e5" style="fill: var(--color4, #e5e5e5)" d="M20.267 29.866h-5.333v2.133h5.333v-2.133z"></path>
</symbol>
<symbol id="icon-watsap" viewBox="0 0 32 32">
<path fill="#20a83e" style="fill: var(--color7, #20a83e)" d="M27.314 4.686c-3.022-3.022-7.040-4.686-11.314-4.686s-8.292 1.664-11.314 4.686c-3.022 3.022-4.686 7.040-4.686 11.314 0 3.218 0.947 6.309 2.742 8.959l-2.699 6.298c-0.084 0.196-0.038 0.435 0.112 0.586 0.156 0.157 0.407 0.2 0.607 0.105l6.022-2.868c2.706 1.911 5.885 2.92 9.215 2.92 4.274 0 8.292-1.664 11.314-4.686s4.686-7.040 4.686-11.314-1.664-8.292-4.686-11.314z"></path>
<path fill="#e5e5e5" style="fill: var(--color4, #e5e5e5)" d="M16 29.333c7.364 0 13.333-5.97 13.333-13.333s-5.97-13.333-13.333-13.333c-7.364 0-13.333 5.97-13.333 13.333s5.97 13.333 13.333 13.333z"></path>
<path fill="#fff" style="fill: var(--color3, #fff)" d="M16 27.733c6.48 0 11.733-5.253 11.733-11.733s-5.253-11.733-11.733-11.733c-6.48 0-11.733 5.253-11.733 11.733s5.253 11.733 11.733 11.733z"></path>
<path fill="#20a83e" style="fill: var(--color7, #20a83e)" d="M24.525 21.415l-0.48-2.598c-0.040-0.215-0.206-0.383-0.42-0.426l-3.771-0.754c-0.175-0.035-0.356 0.020-0.482 0.146l-1.532 1.532c-2.581-1.157-4.014-2.592-5.275-5.285l1.527-1.527c0.126-0.126 0.181-0.307 0.146-0.482l-0.754-3.771c-0.043-0.214-0.212-0.38-0.426-0.42l-2.598-0.48c-0.071-0.013-0.144-0.012-0.215 0.004-0.686 0.156-1.312 0.501-1.81 1-0.863 0.863-1.192 2.121-0.953 3.64 0.401 2.55 1.651 6.099 3.956 8.413l0.031 0.031c2.313 2.303 5.861 3.553 8.411 3.954 0.321 0.051 0.631 0.076 0.927 0.076 1.106 0 2.032-0.349 2.712-1.029 0.498-0.498 0.844-1.124 1-1.81 0.016-0.071 0.018-0.144 0.004-0.215z"></path>
<path fill="#189433" style="fill: var(--color8, #189433)" d="M21.875 23.527c-0.297 0-0.606-0.025-0.927-0.076-2.55-0.401-6.099-1.651-8.411-3.954l-0.031-0.031c-2.305-2.314-3.554-5.863-3.956-8.413-0.208-1.32 0.015-2.443 0.643-3.281-0.274 0.16-0.529 0.356-0.756 0.583-0.863 0.863-1.192 2.121-0.953 3.64 0.401 2.55 1.651 6.099 3.956 8.413l0.031 0.031c2.313 2.303 5.861 3.553 8.411 3.954 0.321 0.051 0.631 0.076 0.927 0.076 1.106 0 2.032-0.349 2.712-1.029 0.123-0.123 0.237-0.255 0.341-0.393-0.565 0.318-1.235 0.48-1.987 0.48z"></path>
</symbol>
<symbol id="icon-instagram" viewBox="0 0 32 32">
<path fill="#fde494" style="fill: var(--color9, #fde494)" d="M7.172 32h3.819l-6.026-3.862-4.953-2.894c0.216 3.762 3.345 6.756 7.16 6.756z"></path>
<path fill="#fea150" style="fill: var(--color10, #fea150)" d="M20.965 29.793l-4.313-1.103h-9.48c-2.13 0-3.862-1.733-3.862-3.862v-2.117l-1.655-1.776-1.655 0.293v3.601c0 0.14 0.004 0.278 0.012 0.416l10.979 6.756h13.048l-3.074-2.207z"></path>
<path fill="#ff5d4a" style="fill: var(--color11, #ff5d4a)" d="M27.604 27.509c-0.703 0.727-1.687 1.181-2.776 1.181h-8.175l7.387 3.31h0.788c2.575 0 4.837-1.364 6.102-3.408l-1.689-1.006-1.638-0.077z"></path>
<path fill="#e45261" style="fill: var(--color12, #e45261)" d="M28.69 20.376v4.452c0 1.041-0.415 1.986-1.086 2.681l3.327 1.083c0.678-1.095 1.070-2.385 1.070-3.765v-3.925l-1.712-0.962-1.598 0.436z"></path>
<path fill="#ff4d95" style="fill: var(--color13, #ff4d95)" d="M32 9.325l-1.763-0.42-1.548 0.927v10.545l3.31 0.526v-11.578z"></path>
<path fill="#cb319c" style="fill: var(--color14, #cb319c)" d="M32 7.173c0-3.602-2.669-6.592-6.133-7.097l-4.34 1.806-2.199 1.429h5.5c2.13 0 3.862 1.733 3.862 3.862v2.659l3.31-0.507v-2.152z"></path>
<path fill="#8a3293" style="fill: var(--color15, #8a3293)" d="M19.858 0l-4.105 1.54-3.238 1.771h6.813l6.539-3.235c-0.339-0.049-0.686-0.075-1.039-0.075h-4.969z"></path>
<path fill="#ff5d4a" style="fill: var(--color11, #ff5d4a)" d="M16 25.379c1.147 0 2.247-0.207 3.264-0.586l-5.376-2.44-5.699-1.166c1.682 2.525 4.555 4.193 7.811 4.193z"></path>
<path fill="#e45261" style="fill: var(--color12, #e45261)" d="M20.572 19.085c-0.993 1.467-2.672 2.432-4.572 2.432-2.517 0-4.644-1.695-5.304-4.003l-1.48-0.925-2.553 0.284c0.147 1.584 0.688 3.055 1.527 4.314l11.075 3.607c2.394-0.892 4.327-2.735 5.341-5.067l-1.985-1.005-2.049 0.364z"></path>
<path fill="#ff4d95" style="fill: var(--color13, #ff4d95)" d="M10.483 16c0-1.367 0.501-2.619 1.328-3.584l-2.354-0.329-2.391 1.056c-0.289 0.901-0.446 1.861-0.446 2.858 0 0.294 0.015 0.585 0.042 0.873l4.033 0.641c-0.138-0.482-0.213-0.989-0.213-1.514z"></path>
<path fill="#ff4d95" style="fill: var(--color13, #ff4d95)" d="M25.379 16c0-2.009-0.635-3.872-1.714-5.399l-2.337-0.332-2.401 1.057c1.555 0.977 2.591 2.706 2.591 4.674 0 1.142-0.349 2.204-0.945 3.085l4.033 0.641c0.497-1.143 0.774-2.402 0.774-3.726z"></path>
<path fill="#cb319c" style="fill: var(--color14, #cb319c)" d="M16 10.483c1.075 0 2.078 0.31 2.927 0.843l4.738-0.726c-1.7-2.406-4.502-3.98-7.665-3.98-4.176 0-7.722 2.743-8.934 6.522l4.744-0.726c1.013-1.182 2.514-1.933 4.189-1.933z"></path>
<path fill="#cb319c" style="fill: var(--color14, #cb319c)" d="M24.828 9.379c1.217 0 2.207-0.99 2.207-2.207s-0.99-2.207-2.207-2.207c-1.217 0-2.207 0.99-2.207 2.207s0.99 2.207 2.207 2.207z"></path>
<path fill="#ff5d4a" style="fill: var(--color11, #ff5d4a)" d="M3.31 19.598l-1.593-0.795-1.717-0.283v2.707l3.31 1.484v-3.113z"></path>
<path fill="#e45261" style="fill: var(--color12, #e45261)" d="M0 15.814v2.706l3.31 1.078v-3.258l-1.72-0.618-1.59 0.092z"></path>
<path fill="#ff4d95" style="fill: var(--color13, #ff4d95)" d="M3.31 13.717l-1.701-0.015-1.609 0.522v1.589l3.31 0.526v-2.622z"></path>
<path fill="#cb319c" style="fill: var(--color14, #cb319c)" d="M3.31 11.235l-1.753 0.178-1.557 1.46v1.352l3.31-0.507v-2.483z"></path>
<path fill="#8a3293" style="fill: var(--color15, #8a3293)" d="M0 12.872l3.31-1.638v-3.775l-1.942 0.186-1.369 1.307v3.92z"></path>
<path fill="#523494" style="fill: var(--color16, #523494)" d="M12.816 0l-7.553 2.905-5.176 3.153c-0.057 0.363-0.087 0.735-0.087 1.114v1.78l3.31-1.492v-0.288c0-2.13 1.733-3.862 3.862-3.862h5.343l7.343-3.31h-7.042z"></path>
<path fill="#2d2d87" style="fill: var(--color17, #2d2d87)" d="M7.173 0c-3.576 0-6.549 2.631-7.086 6.058l12.729-6.058h-5.644z"></path>
</symbol>
<symbol id="icon-telegram" viewBox="0 0 32 32">
<path fill="#47b0d3" style="fill: var(--color18, #47b0d3)" d="M16 32c8.837 0 16-7.163 16-16s-7.163-16-16-16c-8.837 0-16 7.163-16 16s7.163 16 16 16z"></path>
<path fill="#3298ba" style="fill: var(--color19, #3298ba)" d="M2.133 16c0-8.478 6.594-15.415 14.933-15.964-0.353-0.023-0.708-0.036-1.067-0.036-8.837 0-16 7.163-16 16s7.163 16 16 16c0.359 0 0.714-0.013 1.067-0.036-8.339-0.549-14.933-7.486-14.933-15.964z"></path>
<path fill="#e5e5e5" style="fill: var(--color4, #e5e5e5)" d="M23.766 6.816c-0.155-0.106-0.355-0.122-0.525-0.042l-17.193 8.004c-0.302 0.141-0.493 0.448-0.485 0.781 0.007 0.327 0.205 0.62 0.504 0.751l15.851 6.904c0.529 0.241 1.152-0.138 1.186-0.716l0.895-15.209c0.011-0.187-0.077-0.367-0.233-0.472z"></path>
<path fill="#ccc" style="fill: var(--color20, #ccc)" d="M10.727 18.339l1.071 7.161 11.9-18.723-12.971 11.562z"></path>
<path fill="#fff" style="fill: var(--color3, #fff)" d="M23.242 6.773l-17.193 8.004c-0.296 0.138-0.489 0.445-0.486 0.772s0.205 0.63 0.504 0.761l4.66 2.029 12.971-11.562c-0.143-0.069-0.31-0.072-0.456-0.004z"></path>
<path fill="#e5e5e5" style="fill: var(--color4, #e5e5e5)" d="M13.214 19.422l-1.415 6.078 11.9-18.723-10.484 12.645z"></path>
<path fill="#fff" style="fill: var(--color3, #fff)" d="M23.767 6.816c-0.022-0.015-0.045-0.028-0.068-0.039l-10.484 12.645 8.704 3.791c0.529 0.241 1.152-0.138 1.186-0.716l0.895-15.209c0.011-0.187-0.077-0.367-0.233-0.472z"></path>
</symbol>
<symbol id="icon-location" viewBox="0 0 32 32">
<path fill="none" stroke="#fff" style="stroke: var(--color3, #fff)" stroke-linejoin="miter" stroke-linecap="butt" stroke-miterlimit="10" stroke-width="2" d="M16 28.944c0 0 9.333-7.789 9.333-16.944 0-2.475-0.983-4.849-2.734-6.6s-4.124-2.734-6.6-2.734-4.849 0.983-6.6 2.734c-1.75 1.75-2.734 4.124-2.734 6.6 0 9.155 9.333 16.944 9.333 16.944z"></path>
<path fill="none" stroke="#fff" style="stroke: var(--color3, #fff)" stroke-linejoin="miter" stroke-linecap="butt" stroke-miterlimit="10" stroke-width="2" d="M16 16c2.209 0 4-1.791 4-4s-1.791-4-4-4c-2.209 0-4 1.791-4 4s1.791 4 4 4z"></path>
</symbol>
<symbol id="icon-mail" viewBox="0 0 32 32">
<path fill="#fff" style="fill: var(--color3, #fff)" d="M29.511 4.622h-27.022c-0.565 0.002-1.107 0.227-1.507 0.627s-0.625 0.942-0.626 1.507v18.489c0 0.566 0.225 1.108 0.625 1.508s0.943 0.625 1.508 0.625h27.022c0.566 0 1.108-0.225 1.508-0.625s0.625-0.943 0.625-1.508v-18.489c-0.002-0.565-0.227-1.107-0.627-1.507s-0.942-0.625-1.507-0.627zM16 16.1l-13.056-10.055h26.112l-13.056 10.055zM11.953 14.777l-10.175 10.172v-18.007l10.175 7.835zM13.087 15.652l2.913 2.24 2.913-2.241 10.304 10.305h-26.433l10.304-10.304zM20.048 14.776l10.175-7.834v18.008l-10.175-10.175z"></path>
</symbol>
<symbol id="icon-phone" viewBox="0 0 32 32">
<path fill="none" stroke="#fff" style="stroke: var(--color3, #fff)" stroke-linejoin="miter" stroke-linecap="butt" stroke-miterlimit="10" stroke-width="2.1333" d="M24.883 24.181l-4.097-2.748c-0.173-0.123-0.375-0.198-0.587-0.217s-0.424 0.019-0.616 0.11l-1.573 0.798c-0.197 0.097-0.419 0.134-0.637 0.107s-0.424-0.117-0.592-0.259c-2.941-2.434-4.91-5.843-5.547-9.607-0.039-0.216-0.014-0.44 0.071-0.642s0.229-0.376 0.412-0.498l1.432-1.042c0.178-0.117 0.321-0.279 0.415-0.47s0.135-0.403 0.12-0.615l-0.331-4.923-0.076-1.261c-0.014-0.181-0.068-0.357-0.159-0.515-0.146-0.256-0.383-0.447-0.663-0.538-0.773-0.257-1.596-0.326-2.401-0.202s-1.569 0.44-2.228 0.919l-0.322 0.245-0.167 0.128c-0.078 0.056-0.152 0.116-0.223 0.18l-0.205 0.197c-2.71 2.648-2.2 9.307 1.292 15.918l1.062 1.84c3.975 6.321 9.486 10.092 13.151 9.125l0.274-0.079c0.090-0.029 0.179-0.064 0.266-0.102l0.195-0.079 0.373-0.156c0.744-0.331 1.398-0.835 1.909-1.47s0.861-1.382 1.025-2.18c0.062-0.288 0.014-0.588-0.134-0.843-0.091-0.158-0.216-0.293-0.366-0.396l-1.071-0.726z"></path>
</symbol>
</defs>
</svg>
