<svg width="293" height="325" viewBox="0 0 293 325" fill="none" xmlns="http://www.w3.org/2000/svg">
<g filter="url(#filter0_d_30769_173)">
<path fill-rule="evenodd" clip-rule="evenodd" d="M164.355 283.892C234.628 275.108 289 215.154 289 142.5C289 63.7994 225.201 0 146.5 0C67.7994 0 4 63.7994 4 142.5C4 214.838 57.9013 274.588 127.732 283.775H126.577L145.5 316.55L164.355 283.892Z" fill="#FF8A00"/>
</g>
<g filter="url(#filter1_d_30769_173)">
<circle cx="145.953" cy="142.953" r="114.953" fill="url(#paint0_radial_30769_173)"/>
</g>
<path d="M68.8016 153.72C69.9883 153.72 70.9816 153.833 71.7816 154.06C72.595 154.287 73.2016 154.66 73.6016 155.18C74.015 155.7 74.2216 156.393 74.2216 157.26C74.2216 157.82 74.115 158.32 73.9016 158.76C73.7016 159.187 73.395 159.547 72.9816 159.84C72.5816 160.12 72.0883 160.313 71.5016 160.42V160.52C72.1016 160.613 72.6416 160.787 73.1216 161.04C73.615 161.293 74.0016 161.653 74.2816 162.12C74.5616 162.587 74.7016 163.193 74.7016 163.94C74.7016 164.807 74.5016 165.547 74.1016 166.16C73.7016 166.76 73.1283 167.22 72.3816 167.54C71.6483 167.847 70.7683 168 69.7416 168H64.7216V153.72H68.8016ZM69.1616 159.8C70.3883 159.8 71.2283 159.607 71.6816 159.22C72.135 158.82 72.3616 158.233 72.3616 157.46C72.3616 156.673 72.0816 156.113 71.5216 155.78C70.975 155.433 70.095 155.26 68.8816 155.26H66.5216V159.8H69.1616ZM66.5216 161.3V166.48H69.4016C70.6683 166.48 71.5483 166.233 72.0416 165.74C72.535 165.247 72.7816 164.6 72.7816 163.8C72.7816 163.293 72.6683 162.853 72.4416 162.48C72.2283 162.107 71.8616 161.82 71.3416 161.62C70.835 161.407 70.1416 161.3 69.2616 161.3H66.5216ZM80.6594 168V154H82.8394V168H80.6594ZM99.2815 153.72V166.4H101.101V171.76H99.3815V168H89.5615V171.76H87.8415V166.4H88.9415C89.4215 165.573 89.8748 164.647 90.3015 163.62C90.7415 162.593 91.1281 161.52 91.4615 160.4C91.7948 159.267 92.0681 158.133 92.2815 157C92.4948 155.867 92.6281 154.773 92.6815 153.72H99.2815ZM94.2615 155.34C94.2081 156.113 94.0748 156.987 93.8615 157.96C93.6615 158.933 93.4015 159.933 93.0815 160.96C92.7748 161.973 92.4281 162.953 92.0415 163.9C91.6681 164.847 91.2681 165.68 90.8415 166.4H97.5015V155.34H94.2615ZM112.91 155.1C112.15 155.1 111.463 155.233 110.85 155.5C110.236 155.753 109.716 156.133 109.29 156.64C108.863 157.133 108.536 157.74 108.31 158.46C108.083 159.167 107.97 159.967 107.97 160.86C107.97 162.033 108.15 163.053 108.51 163.92C108.883 164.787 109.43 165.453 110.15 165.92C110.883 166.387 111.796 166.62 112.89 166.62C113.516 166.62 114.11 166.567 114.67 166.46C115.23 166.353 115.776 166.22 116.31 166.06V167.62C115.776 167.82 115.223 167.967 114.65 168.06C114.09 168.153 113.416 168.2 112.63 168.2C111.176 168.2 109.963 167.9 108.99 167.3C108.016 166.7 107.283 165.847 106.79 164.74C106.31 163.633 106.07 162.333 106.07 160.84C106.07 159.76 106.216 158.773 106.51 157.88C106.816 156.987 107.256 156.213 107.83 155.56C108.416 154.907 109.136 154.407 109.99 154.06C110.843 153.7 111.823 153.52 112.93 153.52C113.663 153.52 114.37 153.593 115.05 153.74C115.73 153.887 116.336 154.093 116.87 154.36L116.15 155.88C115.71 155.68 115.216 155.5 114.67 155.34C114.136 155.18 113.55 155.1 112.91 155.1ZM128.706 163.94C128.28 164.887 127.846 165.68 127.406 166.32C126.98 166.947 126.473 167.42 125.886 167.74C125.3 168.047 124.553 168.2 123.646 168.2C123.273 168.2 122.92 168.173 122.586 168.12C122.266 168.067 121.973 167.993 121.706 167.9V166.12C121.973 166.24 122.26 166.34 122.566 166.42C122.873 166.487 123.193 166.52 123.526 166.52C124.02 166.52 124.44 166.453 124.786 166.32C125.146 166.173 125.46 165.94 125.726 165.62C126.006 165.3 126.266 164.873 126.506 164.34L121.006 153.72H122.986L126.966 161.58C127.02 161.673 127.073 161.787 127.126 161.92C127.18 162.04 127.233 162.167 127.286 162.3C127.353 162.433 127.406 162.56 127.446 162.68H127.526C127.566 162.587 127.606 162.48 127.646 162.36C127.7 162.227 127.746 162.1 127.786 161.98C127.84 161.847 127.886 161.733 127.926 161.64L131.366 153.72H133.266L128.706 163.94ZM143.027 168H141.227V155.3H136.767V153.72H147.467V155.3H143.027V168ZM163.84 168H162.04V161.34H154.72V168H152.92V153.72H154.72V159.76H162.04V153.72H163.84V168ZM170.674 168V154H172.854V168H170.674ZM185.796 155.1C185.036 155.1 184.35 155.233 183.736 155.5C183.123 155.753 182.603 156.133 182.176 156.64C181.75 157.133 181.423 157.74 181.196 158.46C180.97 159.167 180.856 159.967 180.856 160.86C180.856 162.033 181.036 163.053 181.396 163.92C181.77 164.787 182.316 165.453 183.036 165.92C183.77 166.387 184.683 166.62 185.776 166.62C186.403 166.62 186.996 166.567 187.556 166.46C188.116 166.353 188.663 166.22 189.196 166.06V167.62C188.663 167.82 188.11 167.967 187.536 168.06C186.976 168.153 186.303 168.2 185.516 168.2C184.063 168.2 182.85 167.9 181.876 167.3C180.903 166.7 180.17 165.847 179.676 164.74C179.196 163.633 178.956 162.333 178.956 160.84C178.956 159.76 179.103 158.773 179.396 157.88C179.703 156.987 180.143 156.213 180.716 155.56C181.303 154.907 182.023 154.407 182.876 154.06C183.73 153.7 184.71 153.52 185.816 153.52C186.55 153.52 187.256 153.593 187.936 153.74C188.616 153.887 189.223 154.093 189.756 154.36L189.036 155.88C188.596 155.68 188.103 155.5 187.556 155.34C187.023 155.18 186.436 155.1 185.796 155.1ZM200.133 168H198.333V155.3H193.873V153.72H204.573V155.3H200.133V168ZM210.026 168V153.72H211.826V159.76H214.506C215.84 159.76 216.9 159.94 217.686 160.3C218.473 160.66 219.04 161.147 219.386 161.76C219.733 162.373 219.906 163.06 219.906 163.82C219.906 164.66 219.713 165.393 219.326 166.02C218.953 166.647 218.386 167.133 217.626 167.48C216.866 167.827 215.9 168 214.726 168H210.026ZM214.546 166.46C215.706 166.46 216.58 166.247 217.166 165.82C217.753 165.38 218.046 164.713 218.046 163.82C218.046 163.207 217.9 162.72 217.606 162.36C217.326 161.987 216.906 161.72 216.346 161.56C215.8 161.4 215.113 161.32 214.286 161.32H211.826V166.46H214.546ZM46.4577 175.1C45.6977 175.1 45.011 175.233 44.3977 175.5C43.7843 175.753 43.2643 176.133 42.8377 176.64C42.411 177.133 42.0843 177.74 41.8577 178.46C41.631 179.167 41.5177 179.967 41.5177 180.86C41.5177 182.033 41.6977 183.053 42.0577 183.92C42.431 184.787 42.9777 185.453 43.6977 185.92C44.431 186.387 45.3443 186.62 46.4377 186.62C47.0643 186.62 47.6577 186.567 48.2177 186.46C48.7777 186.353 49.3243 186.22 49.8577 186.06V187.62C49.3243 187.82 48.771 187.967 48.1977 188.06C47.6377 188.153 46.9643 188.2 46.1777 188.2C44.7243 188.2 43.511 187.9 42.5377 187.3C41.5643 186.7 40.831 185.847 40.3377 184.74C39.8577 183.633 39.6177 182.333 39.6177 180.84C39.6177 179.76 39.7643 178.773 40.0577 177.88C40.3643 176.987 40.8043 176.213 41.3777 175.56C41.9643 174.907 42.6843 174.407 43.5377 174.06C44.391 173.7 45.371 173.52 46.4777 173.52C47.211 173.52 47.9177 173.593 48.5977 173.74C49.2777 173.887 49.8843 174.093 50.4177 174.36L49.6977 175.88C49.2577 175.68 48.7643 175.5 48.2177 175.34C47.6843 175.18 47.0977 175.1 46.4577 175.1ZM56.2744 188V173.72H66.9944V188H65.2144V175.3H58.0744V188H56.2744ZM78.2233 188H73.0633V186.96L74.7433 186.58V175.16L73.0633 174.76V173.72H78.2233V174.76L76.5433 175.16V186.58L78.2233 186.96V188ZM88.3606 173.72C89.5473 173.72 90.5406 173.833 91.3406 174.06C92.154 174.287 92.7606 174.66 93.1606 175.18C93.574 175.7 93.7806 176.393 93.7806 177.26C93.7806 177.82 93.674 178.32 93.4606 178.76C93.2606 179.187 92.954 179.547 92.5406 179.84C92.1406 180.12 91.6473 180.313 91.0606 180.42V180.52C91.6606 180.613 92.2006 180.787 92.6806 181.04C93.174 181.293 93.5606 181.653 93.8406 182.12C94.1206 182.587 94.2606 183.193 94.2606 183.94C94.2606 184.807 94.0606 185.547 93.6606 186.16C93.2606 186.76 92.6873 187.22 91.9406 187.54C91.2073 187.847 90.3273 188 89.3006 188H84.2806V173.72H88.3606ZM88.7206 179.8C89.9473 179.8 90.7873 179.607 91.2406 179.22C91.694 178.82 91.9206 178.233 91.9206 177.46C91.9206 176.673 91.6406 176.113 91.0806 175.78C90.534 175.433 89.654 175.26 88.4406 175.26H86.0806V179.8H88.7206ZM86.0806 181.3V186.48H88.9606C90.2273 186.48 91.1073 186.233 91.6006 185.74C92.094 185.247 92.3406 184.6 92.3406 183.8C92.3406 183.293 92.2273 182.853 92.0006 182.48C91.7873 182.107 91.4206 181.82 90.9006 181.62C90.394 181.407 89.7006 181.3 88.8206 181.3H86.0806ZM104.368 173.72C106.235 173.72 107.595 174.087 108.448 174.82C109.302 175.553 109.728 176.587 109.728 177.92C109.728 178.507 109.628 179.073 109.428 179.62C109.242 180.153 108.928 180.633 108.488 181.06C108.048 181.487 107.462 181.827 106.728 182.08C105.995 182.32 105.095 182.44 104.028 182.44H102.388V188H100.588V173.72H104.368ZM104.208 175.26H102.388V180.9H103.828C104.735 180.9 105.488 180.807 106.088 180.62C106.688 180.42 107.135 180.107 107.428 179.68C107.722 179.253 107.868 178.693 107.868 178C107.868 177.08 107.575 176.393 106.988 175.94C106.402 175.487 105.475 175.26 104.208 175.26ZM128.458 180.84C128.458 181.947 128.318 182.953 128.038 183.86C127.758 184.753 127.338 185.527 126.778 186.18C126.231 186.833 125.544 187.333 124.718 187.68C123.904 188.027 122.958 188.2 121.878 188.2C120.758 188.2 119.784 188.027 118.958 187.68C118.131 187.32 117.444 186.82 116.898 186.18C116.351 185.527 115.944 184.747 115.678 183.84C115.411 182.933 115.278 181.927 115.278 180.82C115.278 179.353 115.518 178.073 115.998 176.98C116.478 175.887 117.204 175.033 118.178 174.42C119.164 173.807 120.404 173.5 121.898 173.5C123.324 173.5 124.524 173.807 125.498 174.42C126.471 175.02 127.204 175.873 127.698 176.98C128.204 178.073 128.458 179.36 128.458 180.84ZM117.178 180.84C117.178 182.04 117.344 183.073 117.678 183.94C118.011 184.807 118.524 185.473 119.218 185.94C119.924 186.407 120.811 186.64 121.878 186.64C122.958 186.64 123.838 186.407 124.518 185.94C125.211 185.473 125.724 184.807 126.058 183.94C126.391 183.073 126.558 182.04 126.558 180.84C126.558 179.04 126.184 177.633 125.438 176.62C124.691 175.593 123.511 175.08 121.898 175.08C120.818 175.08 119.924 175.313 119.218 175.78C118.524 176.233 118.011 176.893 117.678 177.76C117.344 178.613 117.178 179.64 117.178 180.84ZM134.923 188V173.72H143.403V175.3H136.723V179.76H138.843C140.269 179.76 141.376 179.94 142.163 180.3C142.949 180.647 143.496 181.127 143.803 181.74C144.109 182.34 144.263 183.033 144.263 183.82C144.263 184.687 144.089 185.433 143.743 186.06C143.409 186.687 142.863 187.167 142.103 187.5C141.343 187.833 140.343 188 139.103 188H134.923ZM138.923 186.46C140.203 186.46 141.103 186.247 141.623 185.82C142.143 185.38 142.403 184.713 142.403 183.82C142.403 183.207 142.276 182.72 142.023 182.36C141.783 181.987 141.383 181.72 140.823 181.56C140.276 181.4 139.543 181.32 138.623 181.32H136.723V186.46H138.923ZM154.547 188H149.387V186.96L151.067 186.58V175.16L149.387 174.76V173.72H154.547V174.76L152.867 175.16V186.58L154.547 186.96V188ZM165.125 188H163.325V175.3H158.865V173.72H169.565V175.3H165.125V188ZM185.938 188H184.138V181.34H176.818V188H175.018V173.72H176.818V179.76H184.138V173.72H185.938V188ZM193.162 173.72H194.842V181.56C194.842 181.893 194.836 182.26 194.822 182.66C194.822 183.047 194.816 183.433 194.802 183.82C194.789 184.207 194.769 184.553 194.742 184.86C194.729 185.153 194.716 185.38 194.702 185.54H194.782L202.642 173.72H204.642V188H202.962V180.24C202.962 179.88 202.969 179.493 202.982 179.08C202.996 178.653 203.009 178.247 203.022 177.86C203.049 177.46 203.069 177.107 203.082 176.8C203.096 176.493 203.109 176.267 203.122 176.12H203.042L195.162 188H193.162V173.72ZM222.214 188H220.054L213.594 180.76V188H211.794V173.72H213.594V180.64L219.894 173.72H221.934L215.734 180.66L222.214 188ZM231.477 188H226.317V186.96L227.997 186.58V175.16L226.317 174.76V173.72H231.477V174.76L229.797 175.16V186.58L231.477 186.96V188ZM241.615 173.72C242.801 173.72 243.795 173.833 244.595 174.06C245.408 174.287 246.015 174.66 246.415 175.18C246.828 175.7 247.035 176.393 247.035 177.26C247.035 177.82 246.928 178.32 246.715 178.76C246.515 179.187 246.208 179.547 245.795 179.84C245.395 180.12 244.901 180.313 244.315 180.42V180.52C244.915 180.613 245.455 180.787 245.935 181.04C246.428 181.293 246.815 181.653 247.095 182.12C247.375 182.587 247.515 183.193 247.515 183.94C247.515 184.807 247.315 185.547 246.915 186.16C246.515 186.76 245.941 187.22 245.195 187.54C244.461 187.847 243.581 188 242.555 188H237.535V173.72H241.615ZM241.975 179.8C243.201 179.8 244.041 179.607 244.495 179.22C244.948 178.82 245.175 178.233 245.175 177.46C245.175 176.673 244.895 176.113 244.335 175.78C243.788 175.433 242.908 175.26 241.695 175.26H239.335V179.8H241.975ZM239.335 181.3V186.48H242.215C243.481 186.48 244.361 186.233 244.855 185.74C245.348 185.247 245.595 184.6 245.595 183.8C245.595 183.293 245.481 182.853 245.255 182.48C245.041 182.107 244.675 181.82 244.155 181.62C243.648 181.407 242.955 181.3 242.075 181.3H239.335Z" fill="white"/>
<path d="M175.75 103.125C174.876 103.125 174.167 103.844 174.167 104.729V106.333C167.181 106.333 161.5 112.089 161.5 119.167C161.5 126.244 167.181 132 174.167 132C181.152 132 186.833 126.244 186.833 119.167H188.416C189.29 119.167 190 118.448 190 117.562C190 109.603 183.607 103.125 175.75 103.125ZM174.167 128.791C168.929 128.791 164.667 124.473 164.667 119.166C164.667 113.86 168.929 109.542 174.167 109.542V117.562C174.167 118.448 174.876 119.166 175.75 119.166H183.667C183.667 124.473 179.404 128.791 174.167 128.791ZM177.333 115.958V106.449C182.178 107.151 186.023 111.046 186.722 115.958H177.333Z" fill="white"/>
<path d="M150.689 74.2502C155.056 74.2502 158.606 70.6504 158.606 66.2294C158.606 61.8084 155.056 58.2087 150.689 58.2087C146.322 58.2087 142.772 61.8084 142.772 66.2294C142.772 70.6504 146.322 74.2502 150.689 74.2502ZM150.689 61.4168C153.308 61.4168 155.439 63.5759 155.439 66.2293C155.439 68.8826 153.308 71.0417 150.689 71.0417C148.07 71.0417 145.939 68.8826 145.939 66.2293C145.939 63.5761 148.07 61.4168 150.689 61.4168Z" fill="white"/>
<path d="M128.251 71.0418C132.617 71.0418 136.167 67.442 136.167 63.021C136.167 58.6 132.617 55.0003 128.251 55.0003C123.884 55.0003 120.334 58.6 120.334 63.021C120.334 67.442 123.884 71.0418 128.251 71.0418ZM128.251 58.2086C130.869 58.2086 133.001 60.3677 133.001 63.021C133.001 65.6744 130.869 67.8335 128.251 67.8335C125.632 67.8335 123.501 65.6744 123.501 63.021C123.501 60.3677 125.632 58.2086 128.251 58.2086Z" fill="white"/>
<path d="M163.325 104.703C164.224 103.67 164.645 102.291 164.477 100.921L162.448 84.4815C161.954 80.4743 158.578 77.4553 154.594 77.4553H146.776C145.895 77.4553 145.006 77.6124 144.138 77.9269C143.311 78.2253 142.881 79.1428 143.175 79.977C143.463 80.8112 144.379 81.241 145.196 80.9523C145.724 80.7629 146.256 80.6667 146.776 80.6667H154.594C156.985 80.6667 159.009 82.4793 159.306 84.8824L161.336 101.322C161.393 101.787 161.257 102.236 160.95 102.586C160.646 102.935 160.228 103.128 159.765 103.128H158.603C157.77 103.128 157.083 103.776 157.023 104.617L155.544 125.586H145.829L144.689 109.426C144.625 108.541 143.859 107.873 142.995 107.941C142.124 108.002 141.465 108.772 141.529 109.654L142.776 127.303C142.836 128.14 143.524 128.792 144.356 128.792H157.023C157.856 128.792 158.543 128.14 158.6 127.297L160.079 106.317C161.323 106.237 162.492 105.656 163.325 104.703Z" fill="white"/>
<path d="M142.469 100.677L140.369 82.043C139.872 77.5995 136.398 74.25 132.294 74.25H124.21C120.106 74.25 116.632 77.6026 116.135 82.043L114.035 100.677C113.861 102.236 114.336 103.786 115.337 104.922C116.198 105.9 117.344 106.471 118.589 106.542L120.337 130.514C120.4 131.352 121.087 132 121.917 132H134.584C135.413 132 136.1 131.352 136.167 130.514L137.915 106.542C139.156 106.471 140.306 105.903 141.167 104.922C142.168 103.783 142.643 102.236 142.469 100.677ZM138.802 102.785C138.621 102.99 138.225 103.34 137.643 103.34H136.439C135.61 103.34 134.922 103.988 134.859 104.825L133.111 128.791H123.39L121.639 104.825C121.575 103.988 120.888 103.34 120.058 103.34H118.855C118.276 103.34 117.88 102.99 117.696 102.785C117.294 102.326 117.107 101.691 117.18 101.04L119.279 82.4056C119.596 79.5855 121.715 77.4584 124.207 77.4584H132.291C134.783 77.4584 136.902 79.5855 137.219 82.4056L139.318 101.04C139.394 101.691 139.204 102.326 138.802 102.785Z" fill="white"/>
<defs>
<filter id="filter0_d_30769_173" x="0" y="0" width="293" height="324.55" filterUnits="userSpaceOnUse" color-interpolation-filters="sRGB">
<feFlood flood-opacity="0" result="BackgroundImageFix"/>
<feColorMatrix in="SourceAlpha" type="matrix" values="0 0 0 0 0 0 0 0 0 0 0 0 0 0 0 0 0 0 127 0" result="hardAlpha"/>
<feOffset dy="4"/>
<feGaussianBlur stdDeviation="2"/>
<feComposite in2="hardAlpha" operator="out"/>
<feColorMatrix type="matrix" values="0 0 0 0 0 0 0 0 0 0 0 0 0 0 0 0 0 0 0.25 0"/>
<feBlend mode="normal" in2="BackgroundImageFix" result="effect1_dropShadow_30769_173"/>
<feBlend mode="normal" in="SourceGraphic" in2="effect1_dropShadow_30769_173" result="shape"/>
</filter>
<filter id="filter1_d_30769_173" x="7" y="16" width="269.906" height="269.907" filterUnits="userSpaceOnUse" color-interpolation-filters="sRGB">
<feFlood flood-opacity="0" result="BackgroundImageFix"/>
<feColorMatrix in="SourceAlpha" type="matrix" values="0 0 0 0 0 0 0 0 0 0 0 0 0 0 0 0 0 0 127 0" result="hardAlpha"/>
<feMorphology radius="7" operator="dilate" in="SourceAlpha" result="effect1_dropShadow_30769_173"/>
<feOffset dx="-4" dy="8"/>
<feGaussianBlur stdDeviation="6.5"/>
<feComposite in2="hardAlpha" operator="out"/>
<feColorMatrix type="matrix" values="0 0 0 0 0 0 0 0 0 0 0 0 0 0 0 0 0 0 0.4 0"/>
<feBlend mode="normal" in2="BackgroundImageFix" result="effect1_dropShadow_30769_173"/>
<feBlend mode="normal" in="SourceGraphic" in2="effect1_dropShadow_30769_173" result="shape"/>
</filter>
<radialGradient id="paint0_radial_30769_173" cx="0" cy="0" r="1" gradientUnits="userSpaceOnUse" gradientTransform="translate(14.1402 334.542) rotate(-60.98) scale(308.049)">
<stop stop-color="#F28801"/>
<stop offset="1" stop-color="#1E1E1E"/>
</radialGradient>
</defs>
</svg>
