<svg width="43" height="43" viewBox="0 0 43 43" fill="none" xmlns="http://www.w3.org/2000/svg">
<path d="M33.9174 34.3925C32.4326 33.2078 27.8067 30.9284 26.6655 30.6657C25.5265 30.4008 24.1476 31.5024 23.7679 32.8701C23.3861 34.2387 22.6739 34.1092 22.6739 34.1092C22.6739 34.1092 19.9301 33.1011 14.9113 28.1014C9.8916 23.1002 8.87698 20.3601 8.87698 20.3601C8.87698 20.3601 8.74303 19.648 10.1109 19.2609C11.4758 18.8776 12.5728 17.4943 12.305 16.3552C12.0387 15.2162 9.74076 10.597 8.55171 9.11866C7.3598 7.64045 5.05745 8.40278 4.55128 8.77139C4.04216 9.13865 -1.30857 12.5403 0.300656 18.804C1.91198 25.0686 5.36878 30.0801 9.16765 33.8664C12.9673 37.6513 17.9912 41.0889 24.2609 42.6768C30.5299 44.2653 33.9123 38.9022 34.2781 38.393C34.6444 37.8854 35.3978 35.5794 33.9174 34.3925Z" fill="white" stroke="white" stroke-width="0.000533333"/>
<path d="M20.7461 15.8713C21.5775 16.279 22.8998 17.0353 24.4324 18.5672C25.9651 20.0999 26.7207 21.4221 27.1283 22.2528C27.5566 23.1262 27.8729 23.3021 28.129 23.2425C28.5513 23.1445 28.6919 23.0312 28.7309 22.1506C28.7632 21.4001 28.4042 19.1617 26.121 16.8786C23.8378 14.5954 21.5988 14.2372 20.8498 14.2695C19.9683 14.307 19.8564 14.4483 19.7587 14.8721C19.699 15.1267 19.8726 15.4438 20.7461 15.8713Z" fill="white" stroke="white" stroke-width="0.000533333"/>
<path d="M22.0823 7.06055C21.0066 7.05979 20.735 7.7257 20.7026 7.98396C20.6364 8.50567 21.0212 8.9287 21.8203 9.15756C22.7341 9.41875 26.3543 10.5798 29.3872 13.6128C32.4209 16.6457 33.5827 20.2665 33.8432 21.1804C34.0713 21.9787 34.4935 22.3629 35.0159 22.2973C35.2756 22.2664 35.9407 21.9942 35.9393 20.9185C35.9401 20.0671 35.4198 15.609 31.4053 11.593C27.3918 7.57924 22.9314 7.05971 22.0823 7.06055Z" fill="white" stroke="white" stroke-width="0.000533333"/>
<path d="M36.7272 6.27394C30.977 0.523778 24.9104 0.0286061 23.8678 0.00131117C22.5948 -0.0310228 22.0901 0.539988 22.0908 1.12561C22.0901 1.62448 22.6014 2.13729 23.3623 2.33306C24.5042 2.62583 29.0308 3.33885 34.3461 8.65423C39.6629 13.9696 40.3745 18.497 40.6688 19.6396C40.8638 20.3989 41.3773 20.9111 41.8755 20.9111C42.4618 20.9111 43.0329 20.407 42.999 19.1349C42.9725 18.0916 42.4774 12.0249 36.7272 6.27394Z" fill="white" stroke="white" stroke-width="0.000533333"/>
</svg>
