<svg width="55" height="55" viewBox="0 0 55 55" fill="none" xmlns="http://www.w3.org/2000/svg">
<g clip-path="url(#clip0_30707_248)">
<path d="M50.4166 0H4.58337C2.05605 0 0 2.05605 0 4.58337V50.4167C0 52.9439 2.05605 55 4.58337 55H50.4167C52.9439 55 55 52.9439 55 50.4166V4.58337C55 2.05605 52.9439 0 50.4166 0Z" fill="#1C74BB"/>
<path d="M54.0834 51.3333H6.41663C4.89779 51.3333 3.66663 50.1021 3.66663 48.5833V0.916553C3.66663 0.630059 3.69424 0.350117 3.74451 0.078125C1.6167 0.473652 0 2.34258 0 4.58329V50.4167C0 52.9439 2.05605 54.9999 4.58337 54.9999H50.4167C52.6575 54.9999 54.5264 53.3832 54.9218 51.2553C54.6497 51.3057 54.3698 51.3333 54.0834 51.3333Z" fill="#035FA1"/>
<path d="M22.9163 55V36.6666H21.9996C19.9779 36.6666 18.333 35.0218 18.333 33V25.6666C18.333 23.6448 19.9779 22 21.9996 22H22.9163V20.1666C22.9163 12.0794 29.4958 5.5 37.5829 5.5H44.9163C46.9381 5.5 48.5829 7.14484 48.5829 9.16663V16.5C48.5829 18.5218 46.9381 20.1666 44.9163 20.1666H37.5829V22H44.9163C46.9381 22 48.5829 23.6448 48.5829 25.6666V33C48.5829 35.0218 46.9381 36.6666 44.9163 36.6666H37.5829V55H22.9163Z" fill="#035FA1"/>
<path d="M37.583 17.4166H44.9164C45.4227 17.4166 45.833 17.0062 45.833 16.5V9.16663C45.833 8.66035 45.4226 8.25 44.9164 8.25H37.583C31.0016 8.25 25.6664 13.5852 25.6664 20.1666V24.75H21.9996C21.4934 24.75 21.083 25.1605 21.083 25.6666V33C21.083 33.5063 21.4935 33.9166 21.9996 33.9166H25.6663V55H34.8329V33.9166H44.9163C45.4225 33.9166 45.8329 33.5062 45.8329 33V25.6666C45.8329 25.1604 45.4224 24.75 44.9163 24.75H34.8329V20.1666C34.833 18.6479 36.0642 17.4166 37.583 17.4166Z" fill="white"/>
<path d="M34.8336 51.333H25.667V54.9996H34.8336V51.333Z" fill="#E5E5E5"/>
</g>
<defs>
<clipPath id="clip0_30707_248">
<rect width="55" height="55" fill="white"/>
</clipPath>
</defs>
</svg>
