<svg width="76" height="77" viewBox="0 0 76 77" fill="none" xmlns="http://www.w3.org/2000/svg">
<path d="M61.7499 48.125C60.8759 48.125 60.1665 48.8437 60.1665 49.7292V51.3334C53.181 51.3334 47.5 57.0891 47.5 64.1666C47.5 71.2441 53.181 76.9998 60.1665 76.9998C67.1521 76.9998 72.8331 71.2441 72.8331 64.1666H74.4165C75.2905 64.1666 75.9998 63.4479 75.9998 62.5624C75.9998 54.6026 69.6065 48.125 61.7499 48.125ZM60.1667 73.7914C54.9291 73.7914 50.6667 69.473 50.6667 64.1665C50.6667 58.86 54.9291 54.5415 60.1667 54.5415V62.5623C60.1667 63.4478 60.8761 64.1665 61.7501 64.1665H69.6666C69.6666 69.4731 65.4043 73.7914 60.1667 73.7914ZM63.3333 60.9582V51.4488C68.1783 52.1514 72.0226 56.0463 72.7224 60.9582H63.3333Z" fill="white"/>
<path d="M36.689 19.2502C41.0559 19.2502 44.6056 15.6505 44.6056 11.2295C44.6056 6.80847 41.0557 3.20874 36.689 3.20874C32.3222 3.20874 28.7725 6.80847 28.7725 11.2295C28.7725 15.6505 32.3222 19.2502 36.689 19.2502ZM36.689 6.41685C39.3079 6.41685 41.439 8.576 41.439 11.2293C41.439 13.8827 39.3079 16.0418 36.689 16.0418C34.0702 16.0418 31.9391 13.8827 31.9391 11.2293C31.9391 8.57615 34.0702 6.41685 36.689 6.41685Z" fill="white"/>
<path d="M14.2506 16.0417C18.6174 16.0417 22.1671 12.442 22.1671 8.02098C22.1671 3.59997 18.6174 0.000244141 14.2506 0.000244141C9.8837 0.000244141 6.33398 3.59997 6.33398 8.02098C6.33398 12.442 9.88385 16.0417 14.2506 16.0417ZM14.2506 3.20851C16.8694 3.20851 19.0005 5.36765 19.0005 8.02098C19.0005 10.6743 16.8694 12.8335 14.2506 12.8335C11.6317 12.8335 9.50058 10.6743 9.50058 8.02098C9.50058 5.36765 11.6318 3.20851 14.2506 3.20851Z" fill="white"/>
<path d="M49.3248 49.7035C50.2241 48.6705 50.6453 47.2908 50.4774 45.9209L48.4475 29.4815C47.9535 25.4744 44.5779 22.4553 40.5942 22.4553H32.7757C31.8953 22.4553 31.0056 22.6125 30.1379 22.9269C29.3114 23.2253 28.8807 24.1428 29.1752 24.9771C29.4634 25.8113 30.3786 26.2411 31.1956 25.9523C31.7245 25.763 32.2565 25.6667 32.7757 25.6667H40.5942C42.985 25.6667 45.0085 27.4794 45.3061 29.8825L47.336 46.3219C47.393 46.787 47.2569 47.2362 46.9496 47.5859C46.6456 47.9356 46.2276 48.1281 45.7653 48.1281H44.6031C43.7703 48.1281 43.0832 48.7761 43.023 49.6168L41.5442 70.5864H31.8288L30.6888 54.4261C30.6255 53.5406 29.8592 52.8733 28.9947 52.9407C28.1239 53.0016 27.4652 53.7716 27.5286 54.6539L28.7762 72.3029C28.8364 73.1403 29.5236 73.7916 30.3563 73.7916H43.0229C43.8558 73.7916 44.5429 73.1403 44.5999 72.2966L46.0788 51.3174C47.3234 51.2371 48.4919 50.6564 49.3248 49.7035Z" fill="white"/>
<path d="M28.4687 45.6769L26.3692 27.043C25.8721 22.5995 22.3982 19.25 18.2942 19.25H10.2098C6.1058 19.25 2.63193 22.6026 2.13482 27.043L0.0353321 45.6769C-0.138784 47.2362 0.336213 48.7858 1.33682 49.9215C2.1982 50.9001 3.34443 51.4711 4.58892 51.5417L6.33691 75.5143C6.4003 76.3516 7.08741 76.9997 7.91702 76.9997H20.5836C21.4132 76.9997 22.1004 76.3516 22.1669 75.5143L23.9149 51.5417C25.1563 51.4711 26.3058 50.9033 27.167 49.9215C28.1678 48.7826 28.6429 47.2362 28.4687 45.6769ZM24.8017 47.7848C24.6212 47.9901 24.2253 48.3399 23.6427 48.3399H22.4393C21.6097 48.3399 20.9224 48.9879 20.8592 49.8253L19.1112 73.7914H9.38966L7.63855 49.8253C7.57517 48.9879 6.88806 48.3399 6.05844 48.3399H4.85507C4.27557 48.3399 3.87969 47.9902 3.69608 47.7848C3.29396 47.326 3.10708 46.6907 3.17996 46.0395L5.27945 27.4056C5.59607 24.5855 7.71455 22.4584 10.2068 22.4584H18.2913C20.7834 22.4584 22.9018 24.5855 23.2186 27.4056L25.3181 46.0395C25.394 46.6909 25.2038 47.3261 24.8017 47.7848Z" fill="white"/>
</svg>
