<svg width="64" height="64" viewBox="0 0 64 64" fill="none" xmlns="http://www.w3.org/2000/svg">
<g clip-path="url(#clip0_30707_205)">
<path d="M14.3445 64.0001H21.9824L9.93066 56.2759L0.0244141 50.4873C0.457039 58.0113 6.71416 64.0001 14.3445 64.0001Z" fill="#FDE494"/>
<path d="M41.931 59.5862L33.3052 57.3793H14.3449C10.0859 57.3793 6.62075 53.9142 6.62075 49.6552V45.4207L3.31037 41.8682L0 42.4534V49.655C0 49.9345 0.009 50.2118 0.02475 50.4872L21.9827 63.9999H48.0786L41.931 59.5862Z" fill="#FEA150"/>
<path d="M55.2073 55.0176C53.8018 56.4722 51.8332 57.3793 49.6555 57.3793H33.3057L48.079 64.0001H49.6555C54.8058 64.0001 59.33 61.2715 61.8605 57.1842L58.4828 55.1725L55.2073 55.0176Z" fill="#FF5D4A"/>
<path d="M57.3794 40.752V49.6555C57.3794 51.737 56.5503 53.6274 55.207 55.0179L61.8604 57.1845C63.2162 54.9945 64.0002 52.415 64.0002 49.6554V41.8047L60.5757 39.8809L57.3794 40.752Z" fill="#E45261"/>
<path d="M63.9997 18.6491L60.4743 17.8096L57.3789 19.6628V40.7521L63.9997 41.8048V18.6491Z" fill="#FF4D95"/>
<path d="M64.0004 14.3451C64.0004 7.14099 58.6619 1.16099 51.7334 0.151367L43.0541 3.76287L38.6562 6.62099H49.6555C53.9145 6.62099 57.3796 10.0861 57.3796 14.3451V19.6627L64.0004 18.649V14.3451Z" fill="#CB319C"/>
<path d="M39.7161 0L31.5059 3.0795L25.0303 6.62075H38.6555L51.7327 0.151C51.054 0.052125 50.3605 0 49.6548 0H39.7161Z" fill="#8A3293"/>
<path d="M32.0004 50.7585C34.2952 50.7585 36.4947 50.3435 38.5287 49.586L27.7762 44.7052L16.3789 42.373C19.7437 47.4237 25.4895 50.7585 32.0004 50.7585Z" fill="#FF5D4A"/>
<path d="M41.1438 38.1698C39.1584 41.103 35.8003 43.0346 31.9997 43.0346C26.9656 43.0346 22.7112 39.6448 21.3913 35.0288L18.4311 33.1787L13.3252 33.746C13.6193 36.9141 14.7019 39.8568 16.3783 42.3731L38.5281 49.5862C43.3159 47.8032 47.1827 44.1166 49.2103 39.4527L45.2412 37.4421L41.1438 38.1698Z" fill="#E45261"/>
<path d="M20.9653 32.0006C20.9653 29.2658 21.9676 26.7622 23.6212 24.8323L18.914 24.1738L14.1327 26.2853C13.5546 28.0881 13.2412 30.0083 13.2412 32.0006C13.2412 32.5896 13.2717 33.1712 13.3251 33.7463L21.3913 35.0291C21.116 34.0661 20.9653 33.051 20.9653 32.0006Z" fill="#FF4D95"/>
<path d="M50.7589 32.0003C50.7589 27.9831 49.489 24.2571 47.3304 21.2016L42.6558 20.5381L37.8535 22.6527C40.9626 24.6066 43.0348 28.065 43.0348 32.0003C43.0348 34.2841 42.3373 36.408 41.1444 38.1701L49.2108 39.4528C50.2045 37.1671 50.7589 34.6478 50.7589 32.0003Z" fill="#FF4D95"/>
<path d="M31.9999 20.9653C34.1492 20.9653 36.1552 21.5852 37.8532 22.6522L47.3301 21.2011C43.9306 16.3895 38.3263 13.2412 31.9999 13.2412C23.6487 13.2412 16.5557 18.7273 14.1328 26.2843L23.6213 24.8313C25.6466 22.4676 28.6503 20.9653 31.9999 20.9653Z" fill="#CB319C"/>
<path d="M49.655 18.7582C52.0887 18.7582 54.0687 16.7782 54.0687 14.3444C54.0687 11.9107 52.0887 9.93066 49.655 9.93066C47.2212 9.93066 45.2412 11.9107 45.2412 14.3444C45.2412 16.7782 47.2212 18.7582 49.655 18.7582Z" fill="#CB319C"/>
<path d="M6.62075 39.1951L3.43375 37.6054L0 37.0391V42.4532L6.62075 45.4203V39.1951Z" fill="#FF5D4A"/>
<path d="M0 31.6272V37.04L6.62075 39.196V32.6801L3.18075 31.4434L0 31.6272Z" fill="#E45261"/>
<path d="M6.62075 27.435L3.21863 27.4043L0 28.4489V31.6269L6.62075 32.6798V27.435Z" fill="#FF4D95"/>
<path d="M6.62075 22.4697L3.11387 22.8255L0 25.7454V28.4489L6.62075 27.435V22.4697Z" fill="#CB319C"/>
<path d="M0 25.7449L6.62075 22.4693V14.9199L2.7375 15.2913L0 17.9048V25.7449Z" fill="#8A3293"/>
<path d="M25.6324 0L10.5258 5.81012L0.173375 12.116C0.059625 12.8426 0 13.5869 0 14.3449V17.9051L6.62075 14.9204V14.3448C6.62075 10.0858 10.0859 6.62063 14.3449 6.62063H25.0308L39.7165 0H25.6324Z" fill="#523494"/>
<path d="M14.3453 0C7.19358 0 1.2477 5.261 0.173828 12.116L25.6328 0H14.3453Z" fill="#2D2D87"/>
</g>
<defs>
<clipPath id="clip0_30707_205">
<rect width="64" height="64" fill="white"/>
</clipPath>
</defs>
</svg>
