<svg width="64" height="64" viewBox="0 0 64 64" fill="none" xmlns="http://www.w3.org/2000/svg">
<g clip-path="url(#clip0_30707_194)">
<path d="M32 64C49.6731 64 64 49.6731 64 32C64 14.3269 49.6731 0 32 0C14.3269 0 0 14.3269 0 32C0 49.6731 14.3269 64 32 64Z" fill="#47B0D3"/>
<path d="M4.26662 32C4.26662 15.044 17.4551 1.1705 34.1333 0.072375C33.428 0.026 32.7171 0 32 0C14.3269 0 0 14.3269 0 32C0 49.6731 14.3269 64 32 64C32.7171 64 33.428 63.974 34.1334 63.9276C17.4552 62.8295 4.26662 48.956 4.26662 32Z" fill="#3298BA"/>
<path d="M47.5329 13.6318C47.2222 13.4205 46.8234 13.3885 46.483 13.5469L12.0972 29.5541C11.493 29.8355 11.1113 30.4506 11.1264 31.1168C11.141 31.77 11.5364 32.3568 12.1345 32.6186L43.8362 46.4258C44.8947 46.9069 46.141 46.1495 46.209 44.9941L47.9983 14.5765C48.0202 14.2018 47.8435 13.8428 47.5329 13.6318Z" fill="#E5E5E5"/>
<path d="M21.4541 36.6773L23.5967 50.9997L47.3962 13.5537L21.4541 36.6773Z" fill="#CCCCCC"/>
<path d="M46.4833 13.5464L12.0972 29.5537C11.5051 29.8293 11.1189 30.4438 11.1261 31.0968C11.1333 31.7509 11.5356 32.356 12.1344 32.6182L21.4541 36.677L47.3961 13.5535C47.1103 13.4158 46.7754 13.4104 46.4833 13.5464Z" fill="white"/>
<path d="M26.4274 38.8433L23.5967 50.9997L47.3962 13.5537L26.4274 38.8433Z" fill="#E5E5E5"/>
<path d="M47.5334 13.6315C47.4895 13.6016 47.4434 13.5762 47.3965 13.5537L26.4277 38.8433L43.8365 46.4255C44.895 46.9066 46.1414 46.1492 46.2094 44.9938L47.9986 14.5762C48.0206 14.2015 47.844 13.8425 47.5334 13.6315Z" fill="white"/>
</g>
<defs>
<clipPath id="clip0_30707_194">
<rect width="64" height="64" fill="white"/>
</clipPath>
</defs>
</svg>
