<svg width="64" height="64" viewBox="0 0 64 64" fill="none" xmlns="http://www.w3.org/2000/svg">
<g clip-path="url(#clip0_30707_231)">
<path d="M54.6274 9.3725C48.5835 3.3285 40.5475 0 32 0C23.4525 0 15.4166 3.3285 9.3725 9.3725C3.32838 15.4165 0 23.4525 0 32C0 38.4356 1.89425 44.6172 5.48425 49.9175L0.08625 62.5132C-0.081625 62.905 0.010375 63.384 0.311 63.6859C0.622875 63.9991 1.12587 64.0866 1.52525 63.8964L13.57 58.1608C18.9823 61.9832 25.3401 64 32 64C40.5475 64 48.5835 60.6715 54.6274 54.6275C60.6714 48.5834 64 40.5475 64 32C64 23.4525 60.6714 15.4166 54.6274 9.3725Z" fill="#20A83E"/>
<path d="M31.9996 58.6663C46.7272 58.6663 58.6663 46.7272 58.6663 31.9996C58.6663 17.2721 46.7272 5.33301 31.9996 5.33301C17.2721 5.33301 5.33301 17.2721 5.33301 31.9996C5.33301 46.7272 17.2721 58.6663 31.9996 58.6663Z" fill="#E5E5E5"/>
<path d="M31.9998 55.4665C44.9601 55.4665 55.4665 44.9601 55.4665 31.9998C55.4665 19.0396 44.9601 8.5332 31.9998 8.5332C19.0396 8.5332 8.5332 19.0396 8.5332 31.9998C8.5332 44.9601 19.0396 55.4665 31.9998 55.4665Z" fill="white"/>
<path d="M49.0493 42.8298L48.0901 37.6347C48.0108 37.2057 47.6783 36.8681 47.2504 36.7825L39.708 35.2741C39.3578 35.2042 38.9966 35.3137 38.7444 35.5658L35.6801 38.6301C30.5174 36.3167 27.6519 33.4453 25.1306 28.0607L28.185 25.0062C28.4373 24.7541 28.5466 24.3925 28.4768 24.0427L26.9683 16.5002C26.8826 16.0723 26.545 15.7397 26.1159 15.6605L20.9208 14.7013C20.7785 14.6751 20.632 14.678 20.4908 14.7101C19.119 15.0218 17.8674 15.713 16.8713 16.7093C15.1461 18.4345 14.4869 20.9516 14.9648 23.989C15.767 29.0891 18.2659 36.1868 22.8759 40.8152L22.9386 40.8777C27.5638 45.4846 34.6614 47.9835 39.7615 48.7858C40.404 48.887 41.023 48.9371 41.6163 48.9371C43.828 48.9371 45.6809 48.2395 47.0413 46.8793C48.0375 45.883 48.7288 44.6313 49.0404 43.2597C49.0726 43.1186 49.0756 42.9722 49.0493 42.8298Z" fill="#20A83E"/>
<path d="M43.7495 47.0536C43.1561 47.0536 42.5373 47.0034 41.8948 46.9023C36.7946 46.0999 29.6969 43.6011 25.0719 38.9942L25.0091 38.9317C20.3991 34.3033 17.9004 27.2056 17.098 22.1054C16.6826 19.4657 17.1275 17.2194 18.3834 15.5439C17.8349 15.8646 17.3261 16.2551 16.8713 16.7099C15.1461 18.4351 14.4869 20.9522 14.9648 23.9896C15.767 29.0897 18.2659 36.1874 22.8759 40.8158L22.9386 40.8783C27.5638 45.4852 34.6614 47.9841 39.7615 48.7864C40.404 48.8876 41.023 48.9377 41.6163 48.9377C43.828 48.9377 45.6809 48.2401 47.0413 46.8799C47.288 46.6332 47.5159 46.3706 47.7241 46.0944C46.5934 46.7296 45.2546 47.0536 43.7495 47.0536Z" fill="#189433"/>
</g>
<defs>
<clipPath id="clip0_30707_231">
<rect width="64" height="64" fill="white"/>
</clipPath>
</defs>
</svg>
