<svg width="64" height="50" viewBox="0 0 64 50" fill="none" xmlns="http://www.w3.org/2000/svg">
<path d="M54.4 0H9.6C4.3065 0 0 4.3065 0 9.6V39.4666C0 44.7601 4.3065 49.0666 9.6 49.0666H54.4C59.6935 49.0666 64 44.7601 64 39.4666V9.6C64 4.30663 59.6935 0 54.4 0Z" fill="#E35336"/>
<path d="M57.6 45.867H9.6C6.06538 45.867 3.2 43.0017 3.2 39.467V6.40028C3.2 4.57253 3.71112 2.86441 4.59762 1.41016C1.84237 3.09941 0 6.13841 0 9.60028V39.4669C0 44.7604 4.3065 49.0669 9.6 49.0669H54.4C57.8619 49.0669 60.9009 47.2247 62.5901 44.4693C61.1359 45.3559 59.4277 45.867 57.6 45.867Z" fill="#D93C1C"/>
<path d="M45.3818 23.6394L24.0484 9.77261C23.3513 9.31936 22.4004 9.83798 22.4004 10.667V38.4004C22.4004 39.2285 23.3506 39.7481 24.0484 39.2947L45.3818 25.4281C46.0176 25.0149 46.0178 24.0526 45.3818 23.6394Z" fill="white"/>
<path d="M25.6004 10.7814L24.0484 9.77261C23.3513 9.31936 22.4004 9.83798 22.4004 10.667V38.4004C22.4004 39.2285 23.3506 39.7481 24.0484 39.2947L25.6004 38.286V10.7814Z" fill="#E5E5E5"/>
</svg>
